{
	"asset":{
		"generator":"Khronos glTF Blender I/O v4.0.44",
		"version":"2.0"
	},
	"scene":0,
	"scenes":[
		{
			"name":"Scene",
			"nodes":[
				0
			]
		}
	],
	"nodes":[
		{
			"mesh":0,
			"name":"Cube",
			"translation":[
				0,
				-5.129169940948486,
				0
			]
		}
	],
	"materials":[
		{
			"doubleSided":true,
			"name":"Material.001",
			"pbrMetallicRoughness":{
				"baseColorTexture":{
					"index":0
				},
				"metallicFactor":0,
				"roughnessFactor":0.5
			}
		}
	],
	"meshes":[
		{
			"name":"Cube",
			"primitives":[
				{
					"attributes":{
						"COLOR_0":0,
						"POSITION":1,
						"NORMAL":2,
						"TEXCOORD_0":3,
						"TANGENT":4
					},
					"indices":5,
					"material":0
				}
			]
		}
	],
	"textures":[
		{
			"sampler":0,
			"source":0
		}
	],
	"images":[
		{
			"mimeType":"image/jpeg",
			"name":"mrSauce_baseColor",
			"uri":"textures/mrSauce_baseColor.jpg"
		}
	],
	"accessors":[
		{
			"bufferView":0,
			"componentType":5123,
			"count":41,
			"normalized":true,
			"type":"VEC4"
		},
		{
			"bufferView":1,
			"componentType":5126,
			"count":41,
			"max":[
				0.2078985720872879,
				0.4238038659095764,
				0.21240001916885376
			],
			"min":[
				-0.22882001101970673,
				-0.3241124749183655,
				-0.1762150079011917
			],
			"type":"VEC3"
		},
		{
			"bufferView":2,
			"componentType":5126,
			"count":41,
			"type":"VEC3"
		},
		{
			"bufferView":3,
			"componentType":5126,
			"count":41,
			"type":"VEC2"
		},
		{
			"bufferView":4,
			"componentType":5126,
			"count":41,
			"type":"VEC4"
		},
		{
			"bufferView":5,
			"componentType":5123,
			"count":51,
			"type":"SCALAR"
		}
	],
	"bufferViews":[
		{
			"buffer":0,
			"byteLength":328,
			"byteOffset":0,
			"target":34962
		},
		{
			"buffer":0,
			"byteLength":492,
			"byteOffset":328,
			"target":34962
		},
		{
			"buffer":0,
			"byteLength":492,
			"byteOffset":820,
			"target":34962
		},
		{
			"buffer":0,
			"byteLength":328,
			"byteOffset":1312,
			"target":34962
		},
		{
			"buffer":0,
			"byteLength":656,
			"byteOffset":1640,
			"target":34962
		},
		{
			"buffer":0,
			"byteLength":102,
			"byteOffset":2296,
			"target":34963
		}
	],
	"samplers":[
		{
			"magFilter":9729,
			"minFilter":9987
		}
	],
	"buffers":[
		{
			"byteLength":2400,
			"uri":"scene.bin"
		}
	]
}
